# xmcd
#
# Track frame offsets: 
#        150
#        23160
#        45921
#        56457
#        68168
#        79645
#        93679
#        108748
#        126141
#        140215
#        160266
#        170166
#        183427
#        192513
#        202039
#        218845
#        235421
#        243337
#        261146
#        272359
#        284593
#        292874
#        304168
#
# Disc length: 4264 seconds
#
# Revision: 0
# Processed by: cddbd v1.5.2PL0 Copyright (c) Steve Scherf et al.
# Submitted via: ExactAudioCopy v1.0b3
#
DISCID=5d10a617
DTITLE=Ralph Stanley and the Clinch Mountain Boys - Live At The Smithson
DTITLE=ian Institution
DYEAR=2006
DGENRE=Bluegrass
TTITLE0=Orange Blosson Special (Live)
TTITLE1=Lonesome Old Song (Live)
TTITLE2=Bill Cheatham (Live)
TTITLE3=Nobody's Love Is Like Mine (Live)
TTITLE4=Katy Daley (Live)
TTITLE5=Maple On The Hill (Live)
TTITLE6=Tennessee Stud (Live)
TTITLE7=The White Dove
TTITLE8=Rank Stranger (Live)
TTITLE9=If I Lose --> The Kitten And The Cat (Live)
TTITLE10=Dark Hollow (Live)
TTITLE11=Hemlock And Primroses (Live)
TTITLE12=Ridin' That Midnight Train (Live)
TTITLE13=Lonesome Road Blues (Live)
TTITLE14=I'm A Man Of Constant Sorrow (Live)
TTITLE15=Flem Jones (Live)
TTITLE16=Shout Little Lulie (Live)
TTITLE17=Gloryland (Live)
TTITLE18=Cacklin' Hen (Live)
TTITLE19=Footprints In The Snow (Live)
TTITLE20=Hills Of Home (Tribute To Carter Stanley) (Live)
TTITLE21=Going Up Home To Live In Green Pastures (Live)
TTITLE22=I Only Exist (Live)
EXTD=
EXTT0=
EXTT1=
EXTT2=
EXTT3=
EXTT4=
EXTT5=
EXTT6=
EXTT7=
EXTT8=
EXTT9=
EXTT10=
EXTT11=
EXTT12=
EXTT13=
EXTT14=
EXTT15=
EXTT16=
EXTT17=
EXTT18=
EXTT19=
EXTT20=
EXTT21=
EXTT22=
PLAYORDER=
